<svg width="40" height="40" viewBox="0 0 40 40" fill="none" xmlns="http://www.w3.org/2000/svg">
<path d="M29.2152 12.9492C29.0985 12.9325 28.9819 12.9325 28.8652 12.9492C26.2819 12.8659 24.2319 10.7492 24.2319 8.14919C24.2319 5.49919 26.3819 3.33252 29.0485 3.33252C31.6985 3.33252 33.8652 5.48252 33.8652 8.14919C33.8485 10.7492 31.7985 12.8659 29.2152 12.9492Z" fill="#5C8EFF"/>
<path d="M34.6527 24.5007C32.786 25.7507 30.1693 26.2173 27.7527 25.9007C28.386 24.534 28.7193 23.0173 28.736 21.4173C28.736 19.7507 28.3693 18.1673 27.6693 16.784C30.136 16.4507 32.7527 16.9173 34.636 18.1673C37.2693 19.9007 37.2693 22.7507 34.6527 24.5007Z" fill="#5C8EFF"/>
<path d="M10.7335 12.9492C10.8502 12.9325 10.9668 12.9325 11.0835 12.9492C13.6668 12.8659 15.7168 10.7492 15.7168 8.14919C15.7168 5.48252 13.5668 3.33252 10.9002 3.33252C8.25016 3.33252 6.10016 5.48252 6.10016 8.14919C6.10016 10.7492 8.15016 12.8659 10.7335 12.9492Z" fill="#5C8EFF"/>
<path d="M10.9185 21.4177C10.9185 23.0343 11.2685 24.5677 11.9018 25.951C9.55181 26.201 7.10181 25.701 5.30181 24.5177C2.66848 22.7677 2.66848 19.9177 5.30181 18.1677C7.08515 16.9677 9.60181 16.4843 11.9685 16.751C11.2851 18.151 10.9185 19.7343 10.9185 21.4177Z" fill="#5C8EFF"/>
<path d="M20.2013 26.45C20.068 26.4333 19.918 26.4333 19.768 26.45C16.7013 26.35 14.2513 23.8333 14.2513 20.7333C14.268 17.5667 16.818 15 20.0013 15C23.168 15 25.7347 17.5667 25.7347 20.7333C25.718 23.8333 23.2847 26.35 20.2013 26.45Z" fill="#EF727A"/>
<path d="M14.7845 29.9019C12.2679 31.5852 12.2679 34.3519 14.7845 36.0185C17.6512 37.9352 22.3512 37.9352 25.2179 36.0185C27.7346 34.3352 27.7346 31.5685 25.2179 29.9019C22.3679 27.9852 17.6679 27.9852 14.7845 29.9019Z" fill="#EF727A"/>
</svg>
