<svg width="16" height="16" viewBox="0 0 16 16" fill="none" xmlns="http://www.w3.org/2000/svg">
<path d="M4.5 2C3.83696 2 3.20107 2.26339 2.73223 2.73223C2.26339 3.20107 2 3.83696 2 4.5V9.5C2 9.8283 2.06466 10.1534 2.1903 10.4567C2.31594 10.76 2.50009 11.0356 2.73223 11.2678C3.20107 11.7366 3.83696 12 4.5 12H9.5C9.8283 12 10.1534 11.9353 10.4567 11.8097C10.76 11.6841 11.0356 11.4999 11.2678 11.2678C11.4999 11.0356 11.6841 10.76 11.8097 10.4567C11.9353 10.1534 12 9.8283 12 9.5V4.5C12 4.1717 11.9353 3.84661 11.8097 3.54329C11.6841 3.23998 11.4999 2.96438 11.2678 2.73223C11.0356 2.50009 10.76 2.31594 10.4567 2.1903C10.1534 2.06466 9.8283 2 9.5 2H4.5ZM7 6.5C6.60218 6.5 6.22064 6.34196 5.93934 6.06066C5.65804 5.77936 5.5 5.39782 5.5 5C5.5 4.60218 5.65804 4.22064 5.93934 3.93934C6.22064 3.65804 6.60218 3.5 7 3.5C7.39782 3.5 7.77936 3.65804 8.06066 3.93934C8.34196 4.22064 8.5 4.60218 8.5 5C8.5 5.39782 8.34196 5.77936 8.06066 6.06066C7.77936 6.34196 7.39782 6.5 7 6.5ZM5.25 7.125H8.75C9.371 7.125 9.875 7.629 9.875 8.25V8.5C9.875 8.9 9.704 9.386 9.235 9.763C8.771 10.135 8.051 10.375 6.998 10.375C5.943 10.375 5.224 10.13 4.762 9.755C4.296 9.377 4.125 8.893 4.125 8.5V8.25C4.125 7.628 4.629 7.125 5.25 7.125ZM4.5 13C4.956 13.607 5.682 14 6.5 14H9.5C10.6935 14 11.8381 13.5259 12.682 12.682C13.5259 11.8381 14 10.6935 14 9.5V6.5C14 5.682 13.607 4.956 13 4.5V9.5C13 10.4283 12.6313 11.3185 11.9749 11.9749C11.3185 12.6313 10.4283 13 9.5 13H4.5Z" fill="#5C8EFF"/>
</svg>
