<svg width="16" height="16" viewBox="0 0 16 16" fill="none" xmlns="http://www.w3.org/2000/svg">
<path d="M2.79961 2.40039C2.48135 2.40039 2.17612 2.52682 1.95108 2.75186C1.72604 2.97691 1.59961 3.28213 1.59961 3.60039V6.80039C1.59961 7.11865 1.72604 7.42388 1.95108 7.64892C2.17612 7.87396 2.48135 8.00039 2.79961 8.00039H13.1996C13.5179 8.00039 13.8231 7.87396 14.0481 7.64892C14.2732 7.42388 14.3996 7.11865 14.3996 6.80039V3.60039C14.3996 3.28213 14.2732 2.97691 14.0481 2.75186C13.8231 2.52682 13.5179 2.40039 13.1996 2.40039H2.79961ZM2.79961 9.60039C2.48135 9.60039 2.17612 9.72682 1.95108 9.95186C1.72604 10.1769 1.59961 10.4821 1.59961 10.8004V12.4004C1.59961 12.7187 1.72604 13.0239 1.95108 13.2489C2.17612 13.474 2.48135 13.6004 2.79961 13.6004H5.99961C6.31787 13.6004 6.62309 13.474 6.84814 13.2489C7.07318 13.0239 7.19961 12.7187 7.19961 12.4004V10.8004C7.19961 10.4821 7.07318 10.1769 6.84814 9.95186C6.62309 9.72682 6.31787 9.60039 5.99961 9.60039H2.79961ZM9.99961 9.60039C9.68135 9.60039 9.37612 9.72682 9.15108 9.95186C8.92604 10.1769 8.79961 10.4821 8.79961 10.8004V12.4004C8.79961 12.7187 8.92604 13.0239 9.15108 13.2489C9.37612 13.474 9.68135 13.6004 9.99961 13.6004H13.1996C13.5179 13.6004 13.8231 13.474 14.0481 13.2489C14.2732 13.0239 14.3996 12.7187 14.3996 12.4004V10.8004C14.3996 10.4821 14.2732 10.1769 14.0481 9.95186C13.8231 9.72682 13.5179 9.60039 13.1996 9.60039H9.99961Z" fill="#9470C1"/>
</svg>
