<svg width="16" height="16" viewBox="0 0 16 16" fill="none" xmlns="http://www.w3.org/2000/svg">
<path d="M10 7.33334H14.6667V8.66667H10V7.33334ZM10.6667 10H14.6667V11.3333H10.6667V10ZM9.33334 4.66667H14.6667V6H9.33334V4.66667ZM2.66668 12.6667H9.33334V12C9.33334 10.162 7.83801 8.66667 6.00001 8.66667H4.66668C2.82868 8.66667 1.33334 10.162 1.33334 12V12.6667H2.66668ZM5.33334 8C6.66334 8 7.66668 6.99667 7.66668 5.66667C7.66668 4.33667 6.66334 3.33334 5.33334 3.33334C4.00334 3.33334 3.00001 4.33667 3.00001 5.66667C3.00001 6.99667 4.00334 8 5.33334 8Z" fill="#EE9B05"/>
</svg>
