<svg width="42" height="34" viewBox="0 0 42 34" fill="none" xmlns="http://www.w3.org/2000/svg">
<g clip-path="url(#clip0_1_227)">
<path d="M13.65 23.375C13.4931 23.375 13.3363 23.3982 13.1867 23.4474C12.3362 23.727 11.4417 23.9062 10.5 23.9062C9.55826 23.9062 8.6638 23.727 7.81264 23.4474C7.66302 23.3982 7.50683 23.375 7.34998 23.375C3.2773 23.375 -0.0216723 26.7272 -1.60545e-05 30.8537C0.00917145 32.5975 1.42601 34 3.14998 34H17.85C19.574 34 20.9908 32.5975 21 30.8537C21.0216 26.7272 17.7227 23.375 13.65 23.375ZM10.5 21.25C13.9794 21.25 16.8 18.3959 16.8 14.875C16.8 11.3541 13.9794 8.5 10.5 8.5C7.02055 8.5 4.19998 11.3541 4.19998 14.875C4.19998 18.3959 7.02055 21.25 10.5 21.25ZM38.85 0H13.65C11.9129 0 10.5 1.47754 10.5 3.29309V6.375C12.0369 6.375 13.4597 6.82523 14.7 7.55703V4.25H37.8V23.375H33.6V19.125H25.2V23.375H20.1967C21.4502 24.4833 22.3702 25.9469 22.8014 27.625H38.85C40.5871 27.625 42 26.1475 42 24.3319V3.29309C42 1.47754 40.5871 0 38.85 0Z" fill="#547188"/>
</g>
<defs>
<clipPath id="clip0_1_227">
<rect width="42" height="34" fill="white"/>
</clipPath>
</defs>
</svg>
