<svg width="40" height="40" viewBox="0 0 40 40" fill="none" xmlns="http://www.w3.org/2000/svg">
<path d="M26.25 20C26.2499 20.2212 26.191 20.4385 26.0795 20.6296C25.9679 20.8206 25.8076 20.9786 25.615 21.0875L19.05 24.81C18.7645 24.9719 18.4414 25.0561 18.1132 25.054C17.7849 25.0519 17.463 24.9637 17.1795 24.7982C16.8961 24.6327 16.661 24.3957 16.4979 24.1108C16.3348 23.8259 16.2493 23.5033 16.25 23.175V16.8225C16.2502 16.4947 16.3363 16.1726 16.4998 15.8885C16.6632 15.6043 16.8984 15.368 17.1817 15.203C17.465 15.0381 17.7866 14.9503 18.1144 14.9485C18.4423 14.9466 18.7648 15.0308 19.05 15.1925L25.615 18.9125C25.8076 19.0214 25.9679 19.1794 26.0795 19.3704C26.191 19.5615 26.2499 19.7788 26.25 20ZM20 5C18.0302 5 16.0796 5.38799 14.2597 6.14181C12.4399 6.89563 10.7863 8.00052 9.3934 9.3934C8.00052 10.7863 6.89563 12.4399 6.14181 14.2597C5.38799 16.0796 5 18.0302 5 20C5 21.9698 5.38799 23.9204 6.14181 25.7403C6.89563 27.5601 8.00052 29.2137 9.3934 30.6066C10.7863 31.9995 12.4399 33.1044 14.2597 33.8582C16.0796 34.612 18.0302 35 20 35C23.9782 35 27.7936 33.4196 30.6066 30.6066C33.4196 27.7936 35 23.9782 35 20C35 16.0218 33.4196 12.2064 30.6066 9.3934C27.7936 6.58035 23.9782 5 20 5V5ZM7.5 20C7.5 16.6848 8.81696 13.5054 11.1612 11.1612C13.5054 8.81696 16.6848 7.5 20 7.5C23.3152 7.5 26.4946 8.81696 28.8388 11.1612C31.183 13.5054 32.5 16.6848 32.5 20C32.5 23.3152 31.183 26.4946 28.8388 28.8388C26.4946 31.183 23.3152 32.5 20 32.5C16.6848 32.5 13.5054 31.183 11.1612 28.8388C8.81696 26.4946 7.5 23.3152 7.5 20Z" fill="#EF727A"/>
</svg>
