<svg width="40" height="40" viewBox="0 0 40 40" fill="none" xmlns="http://www.w3.org/2000/svg">
<path d="M11.25 5C9.5924 5 8.00269 5.65848 6.83058 6.83058C5.65848 8.00269 5 9.5924 5 11.25V23.75C5 24.5708 5.16166 25.3835 5.47575 26.1418C5.78984 26.9001 6.25022 27.5891 6.83058 28.1694C8.00269 29.3415 9.5924 30 11.25 30H23.75C24.5708 30 25.3835 29.8383 26.1418 29.5242C26.9001 29.2102 27.5891 28.7498 28.1694 28.1694C28.7498 27.5891 29.2102 26.9001 29.5242 26.1418C29.8383 25.3835 30 24.5708 30 23.75V11.25C30 10.4292 29.8383 9.61651 29.5242 8.85823C29.2102 8.09994 28.7498 7.41095 28.1694 6.83058C27.5891 6.25022 26.9001 5.78984 26.1418 5.47575C25.3835 5.16166 24.5708 5 23.75 5H11.25ZM17.5 16.25C16.5054 16.25 15.5516 15.8549 14.8483 15.1517C14.1451 14.4484 13.75 13.4946 13.75 12.5C13.75 11.5054 14.1451 10.5516 14.8483 9.84835C15.5516 9.14509 16.5054 8.75 17.5 8.75C18.4946 8.75 19.4484 9.14509 20.1517 9.84835C20.8549 10.5516 21.25 11.5054 21.25 12.5C21.25 13.4946 20.8549 14.4484 20.1517 15.1517C19.4484 15.8549 18.4946 16.25 17.5 16.25V16.25ZM13.125 17.8125H21.875C23.4275 17.8125 24.6875 19.0725 24.6875 20.625V21.25C24.6875 22.25 24.26 23.465 23.0875 24.4075C21.9275 25.3375 20.1275 25.9375 17.495 25.9375C14.8575 25.9375 13.06 25.325 11.905 24.3875C10.74 23.4425 10.3125 22.2325 10.3125 21.25V20.625C10.3125 19.07 11.5725 17.8125 13.125 17.8125V17.8125ZM11.25 32.5C12.39 34.0175 14.205 35 16.25 35H23.75C26.7337 35 29.5952 33.8147 31.705 31.705C33.8147 29.5952 35 26.7337 35 23.75V16.25C35 14.205 34.0175 12.39 32.5 11.25V23.75C32.5 26.0706 31.5781 28.2962 29.9372 29.9372C28.2962 31.5781 26.0706 32.5 23.75 32.5H11.25Z" fill="#9470C1"/>
</svg>
