<svg width="12" height="12" viewBox="0 0 12 12" fill="none" xmlns="http://www.w3.org/2000/svg">
<circle cx="6" cy="6" r="6" fill="#642C90"/>
<path d="M7.1225 3.6125C7.10521 3.5278 7.05919 3.45167 6.99222 3.397C6.92525 3.34233 6.84145 3.31248 6.755 3.3125H4.0625C3.96304 3.3125 3.86766 3.35201 3.79734 3.42233C3.72701 3.49266 3.6875 3.58804 3.6875 3.6875V9.3125C3.6875 9.41196 3.72701 9.50734 3.79734 9.57767C3.86766 9.64799 3.96304 9.6875 4.0625 9.6875C4.16196 9.6875 4.25734 9.64799 4.32766 9.57767C4.39799 9.50734 4.4375 9.41196 4.4375 9.3125V7.0625H6.5375L6.6275 7.5125C6.66125 7.688 6.81612 7.81437 6.995 7.8125H8.9375C9.03696 7.8125 9.13234 7.77299 9.20267 7.70266C9.27299 7.63234 9.3125 7.53696 9.3125 7.4375V4.4375C9.3125 4.33804 9.27299 4.24266 9.20267 4.17234C9.13234 4.10201 9.03696 4.0625 8.9375 4.0625H7.2125L7.1225 3.6125Z" fill="white"/>
</svg>
