<svg width="40" height="40" viewBox="0 0 40 40" fill="none" xmlns="http://www.w3.org/2000/svg">
<g clip-path="url(#clip0_1_401)">
<path d="M35.1667 15.1667C35.1667 6.25 27.4167 -0.916668 18.25 0.0833325C11.25 0.833333 5.58333 6.58333 4.91666 13.6667C4.33333 19.5833 7.16666 24.9167 11.75 27.9167C13.0833 28.75 13.9167 30.25 13.9167 31.8333V37.75H26.1667V31.8333C26.1667 30.25 27 28.8333 28.3333 27.9167C32.4167 25.1667 35.1667 20.5 35.1667 15.1667Z" fill="white"/>
<path d="M23.3333 40H16.6667C16.0833 40 15.6667 39.5833 15.6667 39V37.6667H24.3333V39C24.3333 39.5833 23.9167 40 23.3333 40V40ZM13.9167 30.8333H26.1667V37.5833H13.9167V30.8333Z" fill="#6D7D91"/>
<path d="M29.6667 17.1667V13.5833L28.0833 13.3333C27.9167 12.5833 27.5833 11.8333 27.1667 11.0833L28.0833 9.75L25.5833 7.25L24.25 8.16666C23.5833 7.75 22.8333 7.41666 22 7.25L21.75 5.66666H18.1667L17.9167 7.25C17.1667 7.41666 16.4167 7.75 15.6667 8.16666L14.3333 7.25L11.8333 9.75L12.75 11.0833C12.5 11.75 12.1667 12.5 11.9167 13.3333L10.3333 13.5833V17.1667L11.9167 17.4167C12.0833 18.1667 12.4167 18.9167 12.8333 19.6667L11.9167 21L14.4167 23.5L15.75 22.5833C16.4167 23 17.1667 23.3333 18 23.5L18.25 25.0833H21.8333L22.0833 23.5C22.8333 23.3333 23.5833 23 24.3333 22.5833L25.6667 23.5L28.1667 21L27.25 19.6667C27.6667 19 28 18.25 28.1667 17.4167L29.6667 17.1667V17.1667ZM20 19.9167C17.5 19.9167 15.4167 17.8333 15.4167 15.3333C15.4167 12.8333 17.5 10.75 20 10.75C22.5 10.75 24.5833 12.8333 24.5833 15.3333C24.5833 17.8333 22.5 19.9167 20 19.9167Z" fill="#9470C1"/>
<path d="M26.5 32.6667H13.5C13 32.6667 12.5833 32.25 12.5833 31.75C12.5833 31.25 13 30.8333 13.5 30.8333H26.4167C26.9167 30.8333 27.3333 31.25 27.3333 31.75C27.4167 32.25 27 32.6667 26.5 32.6667V32.6667ZM26.5 35.1667H13.5C13 35.1667 12.5833 34.75 12.5833 34.25C12.5833 33.75 13 33.3333 13.5 33.3333H26.4167C26.9167 33.3333 27.3333 33.75 27.3333 34.25C27.4167 34.75 27 35.1667 26.5 35.1667V35.1667ZM26.5 37.6667H13.5C13 37.6667 12.5833 37.25 12.5833 36.75C12.5833 36.25 13 35.8333 13.5 35.8333H26.4167C26.9167 35.8333 27.3333 36.25 27.3333 36.75C27.4167 37.25 27 37.6667 26.5 37.6667V37.6667Z" fill="#94A2B3"/>
</g>
<defs>
<clipPath id="clip0_1_401">
<rect width="40" height="40" fill="white"/>
</clipPath>
</defs>
</svg>
