<svg width="16" height="16" viewBox="0 0 16 16" fill="none" xmlns="http://www.w3.org/2000/svg">
<path d="M11.3333 15.1667H4.66666C4.39332 15.1667 4.16666 14.94 4.16666 14.6667C4.16666 14.3933 4.39332 14.1667 4.66666 14.1667H11.3333C11.6067 14.1667 11.8333 14.3933 11.8333 14.6667C11.8333 14.94 11.6067 15.1667 11.3333 15.1667Z" fill="#16A085"/>
<path d="M12 1.33333H4.00001C2.52668 1.33333 1.33334 2.52666 1.33334 3.99999V9.99999C1.33334 11.4733 2.52668 12.6667 4.00001 12.6667H12C13.4733 12.6667 14.6667 11.4733 14.6667 9.99999V3.99999C14.6667 2.52666 13.4733 1.33333 12 1.33333ZM6.66001 4.87999C7.03334 4.87999 7.33334 5.17999 7.33334 5.54666C7.33334 5.91333 7.03334 6.21333 6.66668 6.21333C6.30001 6.21333 6.00001 5.91333 6.00001 5.54666C6.00001 5.17999 6.29334 4.87999 6.66001 4.87999ZM4.56001 4.87999C4.93334 4.87999 5.23334 5.17999 5.23334 5.54666C5.23334 5.91333 4.93334 6.21333 4.56668 6.21333C4.20001 6.21333 3.90001 5.91333 3.90001 5.54666C3.90001 5.17999 4.18668 4.87999 4.56001 4.87999ZM11.5067 9.90666H4.50668C4.22668 9.90666 4.00001 9.67999 4.00001 9.40666C4.00001 9.13333 4.22001 8.90666 4.49334 8.90666H11.5133C11.7867 8.90666 12.0133 9.13333 12.0133 9.40666C12.0133 9.67999 11.7867 9.90666 11.5067 9.90666ZM11.5067 6.04666H9.05334C8.78001 6.04666 8.55334 5.81999 8.55334 5.54666C8.55334 5.27333 8.78001 5.04666 9.05334 5.04666H11.5067C11.78 5.04666 12.0067 5.27333 12.0067 5.54666C12.0067 5.81999 11.7867 6.04666 11.5067 6.04666Z" fill="#16A085"/>
</svg>
