<svg width="40" height="40" viewBox="0 0 40 40" fill="none" xmlns="http://www.w3.org/2000/svg">
<rect x="7.2" y="3.2" width="26.4" height="33.6" rx="3" fill="#D4F4F6"/>
<path d="M7.2 6.2C7.2 4.54314 8.54314 3.2 10.2 3.2H30.6C32.2569 3.2 33.6 4.54314 33.6 6.2V8.8H7.2V6.2Z" fill="#0E8A67"/>
<path d="M23.1909 16.2896H22.3525C22.1102 16.2896 21.9339 16.3192 21.8236 16.3772C21.7132 16.4364 21.6393 16.524 21.6006 16.6423C21.5631 16.7594 21.5437 16.9164 21.5437 17.1132C21.5437 17.31 21.5608 17.467 21.5961 17.5841C21.6302 17.7024 21.6894 17.7855 21.7724 17.8333C21.8964 17.8958 22.0727 17.9265 22.3002 17.9265H23.1909V18.766C23.1909 19.0072 23.2205 19.1835 23.2796 19.2938C23.3388 19.4053 23.4264 19.4793 23.5435 19.5168C23.6607 19.5555 23.8188 19.5737 24.0156 19.5737C24.2124 19.5737 24.3694 19.5555 24.4865 19.5168C24.6037 19.4793 24.6867 19.4156 24.7357 19.3257C24.7971 19.1937 24.8289 19.0038 24.8289 18.7558V17.9265H25.7299C25.9585 17.9265 26.1234 17.8992 26.227 17.8435C26.3305 17.7889 26.3999 17.7002 26.4351 17.5796C26.4692 17.459 26.4863 17.3009 26.4863 17.1075C26.4863 16.9141 26.467 16.7572 26.4294 16.6366C26.3919 16.516 26.3236 16.4307 26.227 16.3829C26.0961 16.3203 25.9062 16.2896 25.657 16.2896H24.8289V15.4501C24.8289 15.2078 24.8005 15.0327 24.7459 14.9212C24.6902 14.8108 24.6026 14.7369 24.482 14.6994C24.3603 14.6607 24.2033 14.6425 24.0099 14.6425C23.8165 14.6425 23.6595 14.6607 23.539 14.6994C23.4173 14.7369 23.3331 14.8006 23.2842 14.8905C23.2227 15.0224 23.1909 15.2124 23.1909 15.4604V16.2896Z" fill="#0E8A67"/>
<path d="M16.486 12.5381L13.6888 18.3201C13.5716 18.5544 13.5125 18.7308 13.5125 18.8479C13.5125 19.097 13.7127 19.3211 14.1131 19.5213C14.3486 19.6396 14.5329 19.6977 14.6682 19.6977C14.8025 19.6977 14.9128 19.6669 14.9992 19.6044C15.0857 19.543 15.1483 19.477 15.1858 19.4076C15.2233 19.3393 15.2768 19.2347 15.3462 19.097L15.8854 17.9777H18.7554L19.2946 19.097C19.3628 19.2347 19.4163 19.3348 19.4549 19.3973C19.4925 19.4599 19.5551 19.5236 19.6415 19.5896C19.728 19.6544 19.8383 19.6874 19.9725 19.6874C20.1079 19.6874 20.2922 19.6294 20.5276 19.5111C20.928 19.3177 21.1283 19.097 21.1283 18.8479C21.1283 18.7308 21.0691 18.5544 20.9519 18.3201L18.1548 12.5278C18.0785 12.3686 17.9625 12.2412 17.8078 12.1445C17.652 12.0478 17.4882 12 17.3153 12C16.9421 12 16.6657 12.1786 16.486 12.5381V12.5381ZM17.3255 15.0247L18.0091 16.4443H16.6316L17.3255 15.0247Z" fill="#0E8A67"/>
<path fill-rule="evenodd" clip-rule="evenodd" d="M19.8907 25.6H27.8534C28.3243 25.6 28.7065 25.2416 28.7065 24.8C28.7065 24.3584 28.3243 24 27.8534 24H19.8907C19.4197 24 19.0375 24.3584 19.0375 24.8C19.0375 25.2416 19.4197 25.6 19.8907 25.6Z" fill="#0E8A67"/>
<path fill-rule="evenodd" clip-rule="evenodd" d="M19.8907 31.2H27.8534C28.3243 31.2 28.7065 30.8416 28.7065 30.4C28.7065 29.9584 28.3243 29.6 27.8534 29.6H19.8907C19.4197 29.6 19.0375 29.9584 19.0375 30.4C19.0375 30.8416 19.4197 31.2 19.8907 31.2Z" fill="#0E8A67"/>
<rect x="12.8" y="24" width="4" height="1.6" rx="0.8" fill="#0E8A67"/>
<rect x="12.8" y="29.6" width="4" height="1.6" rx="0.8" fill="#0E8A67"/>
</svg>
