<svg width="16" height="16" viewBox="0 0 16 16" fill="none" xmlns="http://www.w3.org/2000/svg">
<path opacity="0.5" d="M14.6665 6.66614H1.33319V12.6661C1.33319 13.1966 1.5439 13.7053 1.91898 14.0804C2.29405 14.4554 2.80276 14.6661 3.33319 14.6661H12.6665C13.197 14.6661 13.7057 14.4554 14.0807 14.0804C14.4558 13.7053 14.6665 13.1966 14.6665 12.6661V6.66614ZM4.66652 5.33281C4.48971 5.33281 4.32014 5.26257 4.19512 5.13755C4.07009 5.01253 3.99986 4.84296 3.99986 4.66615V1.99948C3.99986 1.82267 4.07009 1.6531 4.19512 1.52808C4.32014 1.40305 4.48971 1.33281 4.66652 1.33281C4.84333 1.33281 5.0129 1.40305 5.13793 1.52808C5.26295 1.6531 5.33319 1.82267 5.33319 1.99948V4.66615C5.33319 4.84296 5.26295 5.01253 5.13793 5.13755C5.0129 5.26257 4.84333 5.33281 4.66652 5.33281ZM11.3332 5.33281C11.1564 5.33281 10.9868 5.26257 10.8618 5.13755C10.7368 5.01253 10.6665 4.84296 10.6665 4.66615V1.99948C10.6665 1.82267 10.7368 1.6531 10.8618 1.52808C10.9868 1.40305 11.1564 1.33281 11.3332 1.33281C11.51 1.33281 11.6796 1.40305 11.8046 1.52808C11.9296 1.6531 11.9999 1.82267 11.9999 1.99948V4.66615C11.9999 4.84296 11.9296 5.01253 11.8046 5.13755C11.6796 5.26257 11.51 5.33281 11.3332 5.33281Z" fill="#FFAC88"/>
<path d="M12.6665 2.66719H11.9999V4.66719C11.9999 4.844 11.9296 5.01357 11.8046 5.13859C11.6796 5.26362 11.51 5.33385 11.3332 5.33385C11.1564 5.33385 10.9868 5.26362 10.8618 5.13859C10.7368 5.01357 10.6665 4.844 10.6665 4.66719V2.66719H5.33319V4.66719C5.33319 4.844 5.26295 5.01357 5.13793 5.13859C5.0129 5.26362 4.84333 5.33385 4.66652 5.33385C4.48971 5.33385 4.32014 5.26362 4.19512 5.13859C4.07009 5.01357 3.99986 4.844 3.99986 4.66719V2.66719H3.33319C2.80276 2.66719 2.29405 2.8779 1.91898 3.25297C1.5439 3.62805 1.33319 4.13675 1.33319 4.66719V6.66719H14.6665V4.66719C14.6665 4.13675 14.4558 3.62805 14.0807 3.25297C13.7057 2.8779 13.197 2.66719 12.6665 2.66719Z" fill="#FA6D2F"/>
</svg>
