<svg width="16" height="16" viewBox="0 0 16 16" fill="none" xmlns="http://www.w3.org/2000/svg">
<g clip-path="url(#clip0_1_327)">
<path fill-rule="evenodd" clip-rule="evenodd" d="M2 3V13C2 13.2652 2.10536 13.5196 2.29289 13.7071C2.48043 13.8946 2.73478 14 3 14H10.3333C10.5985 14 10.8529 13.8946 11.0404 13.7071C11.228 13.5196 11.3333 13.2652 11.3333 13V3C11.3333 2.73478 11.228 2.48043 11.0404 2.29289C10.8529 2.10536 10.5985 2 10.3333 2H3C2.73478 2 2.48043 2.10536 2.29289 2.29289C2.10536 2.48043 2 2.73478 2 3ZM6.66667 5C6.66667 4.91159 6.70178 4.82681 6.7643 4.7643C6.82681 4.70179 6.91159 4.66667 7 4.66667H9.66667C9.75507 4.66667 9.83986 4.70179 9.90237 4.7643C9.96488 4.82681 10 4.91159 10 5C10 5.08841 9.96488 5.17319 9.90237 5.2357C9.83986 5.29821 9.75507 5.33333 9.66667 5.33333H7C6.91159 5.33333 6.82681 5.29821 6.7643 5.2357C6.70178 5.17319 6.66667 5.08841 6.66667 5ZM7 6C6.91159 6 6.82681 6.03512 6.7643 6.09763C6.70178 6.16014 6.66667 6.24493 6.66667 6.33333C6.66667 6.42174 6.70178 6.50652 6.7643 6.56904C6.82681 6.63155 6.91159 6.66667 7 6.66667H9.66667C9.75507 6.66667 9.83986 6.63155 9.90237 6.56904C9.96488 6.50652 10 6.42174 10 6.33333C10 6.24493 9.96488 6.16014 9.90237 6.09763C9.83986 6.03512 9.75507 6 9.66667 6H7ZM6.66667 9.33333C6.66667 9.24493 6.70178 9.16014 6.7643 9.09763C6.82681 9.03512 6.91159 9 7 9H9.66667C9.75507 9 9.83986 9.03512 9.90237 9.09763C9.96488 9.16014 10 9.24493 10 9.33333C10 9.42174 9.96488 9.50652 9.90237 9.56904C9.83986 9.63155 9.75507 9.66667 9.66667 9.66667H7C6.91159 9.66667 6.82681 9.63155 6.7643 9.56904C6.70178 9.50652 6.66667 9.42174 6.66667 9.33333ZM7 10.3333C6.91159 10.3333 6.82681 10.3685 6.7643 10.431C6.70178 10.4935 6.66667 10.5783 6.66667 10.6667C6.66667 10.7551 6.70178 10.8399 6.7643 10.9024C6.82681 10.9649 6.91159 11 7 11H9.66667C9.75507 11 9.83986 10.9649 9.90237 10.9024C9.96488 10.8399 10 10.7551 10 10.6667C10 10.5783 9.96488 10.4935 9.90237 10.431C9.83986 10.3685 9.75507 10.3333 9.66667 10.3333H7ZM4 9.33333V10.3333H5V9.33333H4ZM3.66667 8.66667H5.33333C5.42174 8.66667 5.50652 8.70179 5.56904 8.7643C5.63155 8.82681 5.66667 8.91159 5.66667 9V10.6667C5.66667 10.7551 5.63155 10.8399 5.56904 10.9024C5.50652 10.9649 5.42174 11 5.33333 11H3.66667C3.57826 11 3.49348 10.9649 3.43096 10.9024C3.36845 10.8399 3.33333 10.7551 3.33333 10.6667V9C3.33333 8.91159 3.36845 8.82681 3.43096 8.7643C3.49348 8.70179 3.57826 8.66667 3.66667 8.66667ZM5.90233 5.23567C5.96305 5.1728 5.99665 5.0886 5.99589 5.0012C5.99513 4.9138 5.96007 4.8302 5.89827 4.76839C5.83647 4.70659 5.75287 4.67153 5.66547 4.67078C5.57807 4.67002 5.49387 4.70361 5.431 4.76433L4.33333 5.862L3.90233 5.431C3.83947 5.37028 3.75527 5.33668 3.66787 5.33744C3.58047 5.3382 3.49686 5.37326 3.43506 5.43506C3.37326 5.49686 3.3382 5.58047 3.33744 5.66787C3.33668 5.75527 3.37028 5.83947 3.431 5.90233L4.33333 6.80467L5.90233 5.23567Z" fill="#EFC75E"/>
<path d="M15.0057 6.07961L13.0194 6.0799L13.0197 5.28519C13.0197 4.93125 13.3899 4.49077 13.8141 4.49077L14.2113 4.49077C14.6355 4.49077 15.006 4.93096 15.006 5.28548L15.0057 6.07961ZM15.006 6.87431L15.006 12.4364L14.0127 14.0252L13.0194 12.4364L13.0194 6.87431H15.006Z" fill="#ED655F"/>
</g>
<defs>
<clipPath id="clip0_1_327">
<rect width="16" height="16" fill="white"/>
</clipPath>
</defs>
</svg>
