<svg width="40" height="40" viewBox="0 0 40 40" fill="none" xmlns="http://www.w3.org/2000/svg">
<path opacity="0.5" d="M36.6663 16.6654H3.33301V31.6654C3.33301 32.9914 3.85979 34.2632 4.79747 35.2009C5.73516 36.1386 7.00693 36.6654 8.33301 36.6654H31.6663C32.9924 36.6654 34.2642 36.1386 35.2019 35.2009C36.1396 34.2632 36.6663 32.9914 36.6663 31.6654V16.6654ZM11.6663 13.332C11.2243 13.332 10.8004 13.1564 10.4878 12.8439C10.1753 12.5313 9.99967 12.1074 9.99967 11.6654V4.9987C9.99967 4.55667 10.1753 4.13275 10.4878 3.82019C10.8004 3.50763 11.2243 3.33203 11.6663 3.33203C12.1084 3.33203 12.5323 3.50763 12.8449 3.82019C13.1574 4.13275 13.333 4.55667 13.333 4.9987V11.6654C13.333 12.1074 13.1574 12.5313 12.8449 12.8439C12.5323 13.1564 12.1084 13.332 11.6663 13.332ZM28.333 13.332C27.891 13.332 27.4671 13.1564 27.1545 12.8439C26.8419 12.5313 26.6663 12.1074 26.6663 11.6654V4.9987C26.6663 4.55667 26.8419 4.13275 27.1545 3.82019C27.4671 3.50763 27.891 3.33203 28.333 3.33203C28.775 3.33203 29.199 3.50763 29.5115 3.82019C29.8241 4.13275 29.9997 4.55667 29.9997 4.9987V11.6654C29.9997 12.1074 29.8241 12.5313 29.5115 12.8439C29.199 13.1564 28.775 13.332 28.333 13.332Z" fill="#FFAC88"/>
<path d="M31.6663 6.66797H29.9997V11.668C29.9997 12.11 29.8241 12.5339 29.5115 12.8465C29.199 13.159 28.775 13.3346 28.333 13.3346C27.891 13.3346 27.4671 13.159 27.1545 12.8465C26.8419 12.5339 26.6663 12.11 26.6663 11.668V6.66797H13.333V11.668C13.333 12.11 13.1574 12.5339 12.8449 12.8465C12.5323 13.159 12.1084 13.3346 11.6663 13.3346C11.2243 13.3346 10.8004 13.159 10.4878 12.8465C10.1753 12.5339 9.99967 12.11 9.99967 11.668V6.66797H8.33301C7.00693 6.66797 5.73516 7.19475 4.79747 8.13243C3.85979 9.07012 3.33301 10.3419 3.33301 11.668V16.668H36.6663V11.668C36.6663 10.3419 36.1396 9.07012 35.2019 8.13243C34.2642 7.19475 32.9924 6.66797 31.6663 6.66797V6.66797Z" fill="#FA6D2F"/>
</svg>
